<?xml version="1.0" encoding="utf-8"?>
<!-- Generator: Adobe Illustrator 16.0.0, SVG Export Plug-In . SVG Version: 6.00 Build 0)  -->
<!DOCTYPE svg PUBLIC "-//W3C//DTD SVG 1.1//EN" "http://www.w3.org/Graphics/SVG/1.1/DTD/svg11.dtd">
<svg version="1.1" id="Layer_1" xmlns="http://www.w3.org/2000/svg" xmlns:xlink="http://www.w3.org/1999/xlink" x="0px" y="0px"
	 width="89.05px" height="50px" viewBox="0 0 89.05 50" enable-background="new 0 0 89.05 50" xml:space="preserve">
<g>
	<polygon fill="#4E833D" points="44.477,0 0,0 0,26.822 39.865,26.822 44.477,26.822 	"/>
	<polygon fill="#3B622E" points="49.51,26.822 89,26.822 89,0 44.525,0 44.525,26.822 	"/>
	<rect x="44.477" y="0" fill="#3B622E" width="0.048" height="26.823"/>
	<path fill="#27421F" d="M44.525,26.822h-0.048h-4.612l0,0h4.571c0.033,0.484,0.057,0.973,0.057,1.467
		c0-0.494,0.022-0.982,0.055-1.467h4.962l0,0H44.525z"/>
	<path fill="#3B622E" d="M44.437,26.822h-4.571H0.056C0.023,27.307,0,27.795,0,28.289C0,40.279,9.961,50,22.247,50
		c7.173,0,13.55-3.318,17.619-8.463c0.325-0.41,0.636-0.832,0.93-1.264c0.032-0.051,0.062-0.1,0.096-0.146
		c2.275-3.406,3.602-7.471,3.602-11.838C44.493,27.795,44.47,27.307,44.437,26.822z"/>
	<path fill="#27421F" d="M88.928,26.822H49.51h-4.962c-0.033,0.484-0.055,0.973-0.055,1.467c0,4.367-1.327,8.432-3.602,11.838
		c0.796-1.137,2.11-1.883,3.602-1.883c1.491,0,2.803,0.746,3.6,1.879c0.035,0.051,0.067,0.102,0.101,0.154
		c0.409,0.602,0.848,1.184,1.316,1.742C53.589,46.889,59.792,50,66.74,50c12.285,0,22.245-9.721,22.245-21.711
		C88.985,27.795,88.962,27.307,88.928,26.822z"/>
	<path fill="#27421F" d="M40.891,40.127c-0.034,0.047-0.064,0.096-0.096,0.146C40.828,40.225,40.858,40.176,40.891,40.127z"/>
	<path fill="#27421F" d="M48.093,40.123c0.033,0.051,0.066,0.104,0.101,0.154C48.161,40.225,48.128,40.174,48.093,40.123z"/>
</g>
</svg>
